<svg width="188" height="36" viewBox="0 0 188 36" fill="none" xmlns="http://www.w3.org/2000/svg">
<g clip-path="url(#clip0_403_2)">
<path d="M36.7222 26.1675L11.795 31.8543L10.8171 30.1265L33.1644 24.8678C33.202 24.5233 33.202 24.1757 33.1644 23.8311C33.0348 22.7436 32.6828 21.6944 32.1303 20.7484C31.5778 19.8025 30.8366 18.98 29.9526 18.332L29.5239 24.3795L10.2605 28.7893L5.44658 20.0449C4.56861 21.1446 4.0209 22.4705 3.86701 23.8687C3.30287 29.1724 8.88405 33.7475 18.4668 33.7475C23.4688 33.7475 27.9067 32.4779 30.9079 30.4871H33.8188C30.4942 33.2967 24.8979 35.1297 18.4593 35.1297C7.53012 35.1297 -0.6912 29.8711 0.0459357 23.8611C0.324242 21.5699 1.87373 19.504 4.25814 17.8512L0.662723 11.3305L10.6366 15.0416L11.1481 14.9064L14.1568 0.632812L23.2883 12.3972L30.9455 4.35144L30.0955 16.3713C33.9918 18.1592 36.6395 20.8261 36.9855 23.8837C37.0601 24.6599 36.9704 25.4431 36.7222 26.1825V26.1675Z" fill="url(#paint0_linear_403_2)"/>
<path fill-rule="evenodd" clip-rule="evenodd" d="M58.8087 22.8259C58.8087 25.0496 55.6897 26.1614 49.4516 26.1614C43.1859 26.1614 41.4634 25.0496 41.4634 22.8259V10.453C41.4634 9.48385 42.0577 8.77771 43.2536 8.32697C44.6903 7.7861 46.5256 7.51562 50.1511 7.51562C53.7766 7.51562 55.5743 7.7861 57.0185 8.32697C58.2145 8.77771 58.8087 9.47635 58.8087 10.4304V12.5565H52.8665V10.6483C52.8665 9.7844 52.7085 9.23595 52.3926 8.99555C51.663 8.76966 50.8988 8.67549 50.1361 8.71756C49.3734 8.67727 48.6095 8.77135 47.8795 8.99555C47.526 9.23595 47.353 9.7844 47.353 10.6483V22.578C47.2991 23.2197 47.3733 23.8657 47.5711 24.4786C47.7968 24.8167 49.0755 24.9819 50.0985 24.9819C51.1214 24.9819 52.355 24.8167 52.5882 24.4786C52.7939 23.8674 52.8707 23.2203 52.8138 22.578V20.4144H58.756V22.8184L58.8087 22.8259ZM74.0554 17.0037V12.8118C74.1223 12.1856 74.0211 11.5529 73.762 10.9788C73.5665 10.7309 72.2577 10.6032 71.3626 10.6032C70.4675 10.6032 69.1662 10.7309 68.9707 10.9788C68.7116 11.5529 68.6104 12.1856 68.6773 12.8118V17.0037H74.0554ZM71.3626 9.6791C76.861 9.6791 78.8844 10.6858 78.8844 12.6841V25.2598H74.0403V18.2658H68.7074V25.2598H63.8558V12.6916C63.8558 10.6858 65.8717 9.68659 71.3776 9.68659L71.3626 9.6791ZM91.4382 25.5151C96.9668 25.5151 99.0352 24.6813 99.0352 23.021V19.0771C99.0352 18.1605 98.1251 17.4093 96.2747 16.8909C94.8921 16.4438 93.4761 16.1071 92.04 15.8842C90.2648 15.5838 88.6777 15.2607 88.6777 14.9076V11.5496C88.6624 11.3963 88.6945 11.2421 88.7699 11.1078C88.8452 10.9733 88.9601 10.8654 89.099 10.7984C89.8408 10.6446 90.5982 10.579 91.3555 10.6031C92.1161 10.5664 92.8776 10.65 93.612 10.851C93.7949 11.0714 93.9296 11.3278 94.0073 11.6033C94.085 11.8789 94.1041 12.1677 94.0633 12.4511V13.9536H98.9675V12.2408C98.9675 11.3993 98.441 10.7984 97.3955 10.4227C96.1168 9.91191 94.5748 9.6715 91.3781 9.6715C85.9022 9.6715 83.8563 10.3176 83.8563 11.6022V14.3443C83.8563 15.2007 84.7288 15.8767 86.4889 16.3651C87.8682 16.7721 89.2728 17.0883 90.6936 17.3116C92.4462 17.6497 93.3262 18.0403 93.3262 18.4911V22.6304C93.3262 23.4718 93.1908 24.0051 92.92 24.2306C92.4645 24.4925 91.9392 24.6079 91.4157 24.5611C90.8942 24.6198 90.3676 24.512 89.9113 24.253C89.5317 23.6966 89.371 23.0199 89.46 22.3525V20.6396H83.9164V22.6304C83.9164 24.5536 85.9097 25.5151 91.4382 25.5151ZM116.223 18.2733H109.243V23.9527H117.569V25.2748H104.03V9.6791H117.539V10.9938H109.243V16.9887H116.223V18.2733ZM142.06 25.2601H146.904V9.89721H142.06V25.2601ZM166.95 25.2599H162.061V12.902C162.122 12.304 162.044 11.7001 161.835 11.1366C161.632 10.8587 160.331 10.7159 159.428 10.7159C158.525 10.7159 157.217 10.8436 156.998 11.1066C156.719 11.6798 156.607 12.3205 156.675 12.9546V25.2599H151.831V12.7818C151.831 10.746 153.892 9.72425 159.428 9.72425C164.964 9.72425 166.95 10.746 166.95 12.7818V25.2599ZM187.748 17.0637H178.631V18.3183H182.234V22.6378C182.273 22.9264 182.25 23.2198 182.169 23.4992C182.087 23.7787 181.948 24.038 181.76 24.2605C181.035 24.5093 180.269 24.6139 179.504 24.5686C178.739 24.6079 177.973 24.5035 177.247 24.2605C176.924 24.0201 176.766 23.4868 176.766 22.6679V12.9619C176.694 12.3309 176.812 11.693 177.104 11.1289C177.33 10.8585 178.571 10.7232 179.511 10.7232C180.451 10.7232 181.745 10.8585 181.956 11.1439C182.158 11.7066 182.232 12.3069 182.174 12.9018V15.1555H187.755V12.9018C187.755 10.8735 184.987 9.85176 179.481 9.85176C173.975 9.85176 171.914 10.8735 171.914 12.9018V22.8032C171.923 23.2496 172.078 23.6808 172.357 24.0299C172.636 24.379 173.022 24.6264 173.456 24.7338C174.72 25.2297 176.262 25.485 179.474 25.485C182.718 25.485 184.975 25.2346 186.243 24.7338C186.668 24.6227 187.044 24.3762 187.316 24.0318C187.587 23.6874 187.739 23.264 187.748 22.8257V17.0637ZM137.163 25.2749H131.5V17.5447C131.5 17.1015 130.627 16.7033 128.867 16.3727C128.062 16.2225 127.408 16.0948 126.874 15.9822V25.2749H122.03V7.51562H126.866V13.9613L133.44 8.1692H136.772L129.521 14.8177L130.273 14.9454C131.708 15.1648 133.122 15.5015 134.501 15.9521C136.296 16.4929 137.193 17.2191 137.193 18.1306V25.2749H137.163Z" fill="white"/>
</g>
<defs>
<linearGradient id="paint0_linear_403_2" x1="18.5044" y1="30.72" x2="17.6525" y2="-4.7397" gradientUnits="userSpaceOnUse">
<stop offset="0.28" stop-color="#F5AC03"/>
<stop offset="0.34" stop-color="#F6B219"/>
<stop offset="0.44" stop-color="#F7BA34"/>
<stop offset="0.54" stop-color="#F8C049"/>
<stop offset="0.66" stop-color="#F9C458"/>
<stop offset="0.8" stop-color="#F9C661"/>
<stop offset="1" stop-color="#F9C764"/>
</linearGradient>
<clipPath id="clip0_403_2">
<rect width="188" height="36" fill="white"/>
</clipPath>
</defs>
</svg>
